<svg xmlns="http://www.w3.org/2000/svg" width="210" height="75" viewBox="0 0 210 75" preserveAspectRatio="xMidYMax">
  <defs>
    <style>
      .tagline-path { fill: #bbdefb; }
      .logo-path { fill: #fff; }
    </style>
  </defs>
  <title>Jim Swaim for Brookline School Committtee</title>
  <g class="tagline">
    <path class="tagline-path" d="M21,39a1.3,1.3,0,0,0-.29.92v1.17h2l-.16,1.14H20.66v7.29H19.2V42.22H17.71V41.08H19.2V39.93a2.3,2.3,0,0,1,.69-1.75,2.65,2.65,0,0,1,1.93-.67,4.58,4.58,0,0,1,1,.11,5.76,5.76,0,0,1,1,.32L23.36,39a3.41,3.41,0,0,0-1.46-.32A1.27,1.27,0,0,0,21,39Z"/>
    <path class="tagline-path" d="M29.47,42.07a4.91,4.91,0,0,1,1,3.22A5.6,5.6,0,0,1,30,47.6a3.45,3.45,0,0,1-1.28,1.55,3.58,3.58,0,0,1-2,.55A3.36,3.36,0,0,1,24,48.52a4.86,4.86,0,0,1-1-3.22A5.6,5.6,0,0,1,23.43,43a3.5,3.5,0,0,1,1.28-1.55,3.59,3.59,0,0,1,2-.55A3.34,3.34,0,0,1,29.47,42.07ZM24.55,45.3c0,2.15.72,3.22,2.16,3.22s2.16-1.08,2.16-3.23-.71-3.22-2.14-3.22S24.55,43.15,24.55,45.3Z"/>
    <path class="tagline-path" d="M36.69,41l-.27,1.44a3.23,3.23,0,0,0-.73-.09,1.57,1.57,0,0,0-1.26.57,4.49,4.49,0,0,0-.74,1.8v4.81H32.23V41.08h1.25l.14,1.71a3.26,3.26,0,0,1,.91-1.42,2,2,0,0,1,1.33-.48A3.64,3.64,0,0,1,36.69,41Z"/>
    <path class="tagline-path" d="M55.28,41.36a4.22,4.22,0,0,1,1.14,3.21,4.29,4.29,0,0,1-1.68,3.72,7.83,7.83,0,0,1-4.67,1.22H45.24V31.7h3.95a8.51,8.51,0,0,1,4.74,1.12,3.75,3.75,0,0,1,1.66,3.33,3.85,3.85,0,0,1-.89,2.65,3.89,3.89,0,0,1-2.36,1.27A4.92,4.92,0,0,1,55.28,41.36ZM46.79,33v6.53h3.56A3.91,3.91,0,0,0,53,38.66a3,3,0,0,0,1-2.41,2.72,2.72,0,0,0-1.18-2.49A6.43,6.43,0,0,0,49.35,33Zm8,11.57a3.43,3.43,0,0,0-1.18-2.86,4.84,4.84,0,0,0-3.11-.93H46.79v7.43h3.28Q54.83,48.21,54.82,44.57Z"/>
    <path class="tagline-path" d="M66.1,35.78l-.29,1.43a4.6,4.6,0,0,0-1.18-.15,2.73,2.73,0,0,0-2.21,1A8.26,8.26,0,0,0,61,41.19v8.32H59.52V35.91h1.29L60.94,39a5.37,5.37,0,0,1,1.48-2.51,3.43,3.43,0,0,1,2.34-.82A5.11,5.11,0,0,1,66.1,35.78Z"/>
    <path class="tagline-path" d="M76.17,37.49a8,8,0,0,1,1.51,5.18,8.13,8.13,0,0,1-1.53,5.22,5.58,5.58,0,0,1-8.39,0,8,8,0,0,1-1.51-5.18A9.33,9.33,0,0,1,67,39a5.41,5.41,0,0,1,2-2.47,5.35,5.35,0,0,1,3-.86A5.09,5.09,0,0,1,76.17,37.49Zm-7.24.89a7.35,7.35,0,0,0-1.08,4.35A7.33,7.33,0,0,0,68.92,47a3.53,3.53,0,0,0,3,1.48A3.57,3.57,0,0,0,75,47a7.29,7.29,0,0,0,1.1-4.37A7.29,7.29,0,0,0,75,38.37a3.9,3.9,0,0,0-6.11,0Z"/>
    <path class="tagline-path" d="M89.88,37.49a8,8,0,0,1,1.51,5.18,8.08,8.08,0,0,1-1.54,5.22,5.58,5.58,0,0,1-8.39,0A8.09,8.09,0,0,1,80,42.73,9.5,9.5,0,0,1,80.65,39a5.49,5.49,0,0,1,2-2.47,5.3,5.3,0,0,1,3-.86A5.11,5.11,0,0,1,89.88,37.49Zm-7.24.89a7.35,7.35,0,0,0-1.08,4.35A7.26,7.26,0,0,0,82.63,47a3.5,3.5,0,0,0,3,1.48A3.58,3.58,0,0,0,88.72,47a7.3,7.3,0,0,0,1.09-4.37,7.22,7.22,0,0,0-1.07-4.3,3.89,3.89,0,0,0-6.1,0Z"/>
    <path class="tagline-path" d="M96.24,30.19V49.51h-1.5V30.38Zm7.56,5.72L98.12,42l6.28,7.51h-1.81l-6.2-7.43,5.68-6.17Z"/>
    <path class="tagline-path" d="M106.81,49.15a2.67,2.67,0,0,1-.63-1.93V30.38l1.49-.19v17c0,.89.37,1.33,1.09,1.33a2.2,2.2,0,0,0,.93-.18l.41,1.11a3.31,3.31,0,0,1-1.55.37A2.32,2.32,0,0,1,106.81,49.15Z"/>
    <path class="tagline-path" d="M114.15,30.25a1,1,0,0,1,.31.78,1.06,1.06,0,0,1-.31.78,1.15,1.15,0,0,1-.83.31,1.09,1.09,0,0,1-.79-.31,1.06,1.06,0,0,1-.32-.78,1,1,0,0,1,.32-.78,1.05,1.05,0,0,1,.79-.32A1.11,1.11,0,0,1,114.15,30.25Zm-.05,5.66v13.6h-1.5V35.91Z"/>
    <path class="tagline-path" d="M127.3,36.72a4.45,4.45,0,0,1,1,3.07v9.72h-1.5V40a3.66,3.66,0,0,0-.64-2.4,2.4,2.4,0,0,0-1.91-.75,3.78,3.78,0,0,0-2.29.72A7.66,7.66,0,0,0,120,39.66v9.85h-1.5V35.91h1.29l.15,2.32a6.27,6.27,0,0,1,2-1.91,4.78,4.78,0,0,1,2.55-.69A3.55,3.55,0,0,1,127.3,36.72Z"/>
    <path class="tagline-path" d="M142.1,43.3h-9a6.38,6.38,0,0,0,1.26,3.94,3.7,3.7,0,0,0,3,1.28,4.92,4.92,0,0,0,1.87-.32,8.41,8.41,0,0,0,1.77-1l.7,1a7.53,7.53,0,0,1-2.07,1.25,6.3,6.3,0,0,1-2.35.42A5.14,5.14,0,0,1,133,48a7.8,7.8,0,0,1-1.53-5.12,10,10,0,0,1,.66-3.78A5.58,5.58,0,0,1,134,36.53a5.14,5.14,0,0,1,6.77.85,7.81,7.81,0,0,1,1.34,4.83A9.61,9.61,0,0,1,142.1,43.3Zm-1.42-1.56a6,6,0,0,0-.94-3.58,3.59,3.59,0,0,0-5.51,0,6.7,6.7,0,0,0-1.14,4h7.59Z"/>
    <path class="tagline-path" d="M27.24,57.1a7.77,7.77,0,0,1,2.28,1.49l-.9,1a7.36,7.36,0,0,0-2-1.25,5.71,5.71,0,0,0-2.17-.39,4.14,4.14,0,0,0-2.66.82,2.69,2.69,0,0,0-1,2.2,2.94,2.94,0,0,0,.37,1.55,3.33,3.33,0,0,0,1.25,1.09,13.91,13.91,0,0,0,2.51,1,15.27,15.27,0,0,1,2.84,1.17,4.62,4.62,0,0,1,1.67,1.61,4.77,4.77,0,0,1,.6,2.5,4.92,4.92,0,0,1-.73,2.68,4.79,4.79,0,0,1-2.05,1.82,7,7,0,0,1-3.08.65,7.9,7.9,0,0,1-5.65-2.24l.87-1a8.63,8.63,0,0,0,2.2,1.42,6.37,6.37,0,0,0,2.55.48,4.67,4.67,0,0,0,3.11-1,3.43,3.43,0,0,0,1.2-2.76,3.54,3.54,0,0,0-.4-1.79A3.23,3.23,0,0,0,26.8,66.9a13.69,13.69,0,0,0-2.51-1A10,10,0,0,1,20.41,64a3.9,3.9,0,0,1-1.16-3,4,4,0,0,1,.66-2.24,4.38,4.38,0,0,1,1.83-1.56,6.15,6.15,0,0,1,2.7-.56A7.35,7.35,0,0,1,27.24,57.1Z"/>
    <path class="tagline-path" d="M39.85,61.15a5.7,5.7,0,0,1,1.75,1.06l-.75,1a4.63,4.63,0,0,0-1.38-.8,4.73,4.73,0,0,0-1.61-.26,3.63,3.63,0,0,0-3,1.49A7.11,7.11,0,0,0,33.68,68a6.79,6.79,0,0,0,1.12,4.26,3.64,3.64,0,0,0,3,1.43,4.46,4.46,0,0,0,1.63-.28A6.2,6.2,0,0,0,41,72.53l.72,1A5.8,5.8,0,0,1,37.81,75a5.22,5.22,0,0,1-5-3.24A9.14,9.14,0,0,1,32.08,68a9.44,9.44,0,0,1,.71-3.78,5.73,5.73,0,0,1,2-2.51,5.16,5.16,0,0,1,3-.88A6.25,6.25,0,0,1,39.85,61.15Z"/>
    <path class="tagline-path" d="M53,61.93A4.43,4.43,0,0,1,54,65v9.72h-1.5V65.2c0-2.1-.85-3.15-2.56-3.15a3.78,3.78,0,0,0-2.28.72,7.68,7.68,0,0,0-1.9,2.09v9.85H44.24V55.58l1.49-.19v8a5.35,5.35,0,0,1,4.47-2.55A3.54,3.54,0,0,1,53,61.93Z"/>
    <path class="tagline-path" d="M67.11,62.69a8,8,0,0,1,1.51,5.18,8.13,8.13,0,0,1-1.53,5.22,5.58,5.58,0,0,1-8.39,0,8,8,0,0,1-1.51-5.18,9.33,9.33,0,0,1,.7-3.77,5.36,5.36,0,0,1,2-2.47,5.29,5.29,0,0,1,3-.86A5.09,5.09,0,0,1,67.11,62.69Zm-7.23.89a7.27,7.27,0,0,0-1.09,4.35,7.33,7.33,0,0,0,1.07,4.31,3.53,3.53,0,0,0,3,1.48A3.58,3.58,0,0,0,66,72.24a7.29,7.29,0,0,0,1.1-4.37A7.29,7.29,0,0,0,66,63.57a3.89,3.89,0,0,0-6.1,0Z"/>
    <path class="tagline-path" d="M80.82,62.69a8,8,0,0,1,1.51,5.18,8.08,8.08,0,0,1-1.54,5.22,5.57,5.57,0,0,1-8.38,0,8,8,0,0,1-1.51-5.18,9.5,9.5,0,0,1,.69-3.77,5.49,5.49,0,0,1,2-2.47,5.29,5.29,0,0,1,3-.86A5.12,5.12,0,0,1,80.82,62.69Zm-7.24.89a7.35,7.35,0,0,0-1.08,4.35,7.26,7.26,0,0,0,1.07,4.31,3.5,3.5,0,0,0,3,1.48,3.58,3.58,0,0,0,3.06-1.48,7.3,7.3,0,0,0,1.09-4.37,7.22,7.22,0,0,0-1.07-4.3,3.89,3.89,0,0,0-6.1,0Z"/>
    <path class="tagline-path" d="M86.19,74.35a2.67,2.67,0,0,1-.64-1.93V55.58l1.5-.19v17c0,.89.36,1.33,1.09,1.33a2.13,2.13,0,0,0,.92-.18l.42,1.11a3.34,3.34,0,0,1-1.55.37A2.32,2.32,0,0,1,86.19,74.35Z"/>
    <path class="tagline-path" d="M106.76,57a8.31,8.31,0,0,1,2,1.23l-.83,1a6.61,6.61,0,0,0-1.73-1,5.49,5.49,0,0,0-1.88-.31,5,5,0,0,0-4.07,1.93c-1,1.28-1.56,3.26-1.56,5.92a11.61,11.61,0,0,0,.72,4.37,5.66,5.66,0,0,0,2,2.62,5,5,0,0,0,2.85.84,5.43,5.43,0,0,0,2.14-.38,7.68,7.68,0,0,0,1.78-1.1l.8,1A6.65,6.65,0,0,1,104.24,75a6.54,6.54,0,0,1-3.68-1.07A7.07,7.07,0,0,1,98,70.8a12.36,12.36,0,0,1-.91-5,11.83,11.83,0,0,1,.95-5,7.19,7.19,0,0,1,2.57-3.12,6.47,6.47,0,0,1,3.62-1.05A6.79,6.79,0,0,1,106.76,57Z"/>
    <path class="tagline-path" d="M119.63,62.69a8,8,0,0,1,1.51,5.18,8.13,8.13,0,0,1-1.53,5.22,5.58,5.58,0,0,1-8.39,0,8,8,0,0,1-1.51-5.18,9.33,9.33,0,0,1,.7-3.77,5.36,5.36,0,0,1,2-2.47,5.27,5.27,0,0,1,3-.86A5.09,5.09,0,0,1,119.63,62.69Zm-7.23.89a7.27,7.27,0,0,0-1.09,4.35,7.33,7.33,0,0,0,1.07,4.31,3.53,3.53,0,0,0,3,1.48,3.58,3.58,0,0,0,3.06-1.48,7.29,7.29,0,0,0,1.1-4.37,7.29,7.29,0,0,0-1.07-4.3,3.89,3.89,0,0,0-6.1,0Z"/>
    <path class="tagline-path" d="M140.23,62a4.55,4.55,0,0,1,.94,3v9.72h-1.5V65.2a3.84,3.84,0,0,0-.6-2.38,2,2,0,0,0-1.69-.77,3.13,3.13,0,0,0-2,.73,8.41,8.41,0,0,0-1.76,2.08v9.85h-1.49V65.2a3.83,3.83,0,0,0-.61-2.38,2,2,0,0,0-1.69-.77,3.21,3.21,0,0,0-2.07.73A7.94,7.94,0,0,0,126,64.86v9.85h-1.5V61.11h1.29l.13,2.32a6.1,6.1,0,0,1,1.83-1.91,4.18,4.18,0,0,1,2.32-.69,3.35,3.35,0,0,1,2.17.71,3.56,3.56,0,0,1,1.19,2,6.53,6.53,0,0,1,1.87-2,4.2,4.2,0,0,1,2.36-.71A3.18,3.18,0,0,1,140.23,62Z"/>
    <path class="tagline-path" d="M161.21,62a4.55,4.55,0,0,1,.94,3v9.72h-1.49V65.2a3.83,3.83,0,0,0-.61-2.38,2,2,0,0,0-1.69-.77,3.13,3.13,0,0,0-2,.73,8.19,8.19,0,0,0-1.75,2.08v9.85h-1.5V65.2a3.77,3.77,0,0,0-.61-2.38,2,2,0,0,0-1.69-.77,3.17,3.17,0,0,0-2.06.73A7.76,7.76,0,0,0,147,64.86v9.85h-1.5V61.11h1.29l.13,2.32a6.22,6.22,0,0,1,1.83-1.91,4.18,4.18,0,0,1,2.33-.69,3.32,3.32,0,0,1,2.16.71,3.56,3.56,0,0,1,1.19,2,6.53,6.53,0,0,1,1.87-2,4.22,4.22,0,0,1,2.36-.71A3.17,3.17,0,0,1,161.21,62Z"/>
    <path class="tagline-path" d="M168,55.45a1,1,0,0,1,.31.78A1.06,1.06,0,0,1,168,57a1.23,1.23,0,0,1-1.63,0,1.09,1.09,0,0,1-.3-.78,1.06,1.06,0,0,1,.3-.78,1.2,1.2,0,0,1,1.63,0Zm0,5.66v13.6h-1.5V61.11Z"/>
    <path class="tagline-path" d="M178.54,74.14a5,5,0,0,1-2.84.86,3.19,3.19,0,0,1-2.42-.92,3.72,3.72,0,0,1-.88-2.67V62.34h-2.27V61.11h2.27V57.86l1.5-.18v3.43h3.48l-.18,1.23h-3.3v9a2.7,2.7,0,0,0,.49,1.78,1.82,1.82,0,0,0,1.49.59,4.1,4.1,0,0,0,2.07-.6Z"/>
    <path class="tagline-path" d="M186.31,74.14a5,5,0,0,1-2.84.86,3.23,3.23,0,0,1-2.43-.92,3.76,3.76,0,0,1-.87-2.67V62.34h-2.28V61.11h2.28V57.86l1.49-.18v3.43h3.49L185,62.34h-3.31v9a2.76,2.76,0,0,0,.49,1.78,1.86,1.86,0,0,0,1.5.59,4.1,4.1,0,0,0,2.07-.6Z"/>
    <path class="tagline-path" d="M197.15,68.5h-9a6.38,6.38,0,0,0,1.25,3.94,3.73,3.73,0,0,0,3,1.28,5,5,0,0,0,1.87-.32,8.41,8.41,0,0,0,1.77-1l.69,1a7.38,7.38,0,0,1-2.06,1.25,6.34,6.34,0,0,1-2.35.42,5.17,5.17,0,0,1-4.21-1.85A7.85,7.85,0,0,1,186.54,68a10,10,0,0,1,.66-3.78,5.63,5.63,0,0,1,1.88-2.52,4.71,4.71,0,0,1,2.86-.9,4.65,4.65,0,0,1,3.92,1.75,7.81,7.81,0,0,1,1.34,4.83C197.2,67.79,197.18,68.15,197.15,68.5Zm-1.42-1.56a6,6,0,0,0-.94-3.58,3.59,3.59,0,0,0-5.51,0,6.7,6.7,0,0,0-1.14,3.95h7.59Z"/>
    <path class="tagline-path" d="M210,68.5h-9a6.38,6.38,0,0,0,1.25,3.94,3.73,3.73,0,0,0,3,1.28A5,5,0,0,0,207,73.4a8.41,8.41,0,0,0,1.77-1l.69,1a7.24,7.24,0,0,1-2.06,1.25,6.34,6.34,0,0,1-2.35.42,5.17,5.17,0,0,1-4.21-1.85A7.85,7.85,0,0,1,199.34,68a10,10,0,0,1,.66-3.78,5.63,5.63,0,0,1,1.88-2.52,4.71,4.71,0,0,1,2.86-.9,4.63,4.63,0,0,1,3.92,1.75A7.81,7.81,0,0,1,210,67.41C210,67.79,210,68.15,210,68.5Zm-1.42-1.56a6,6,0,0,0-.94-3.58,3.59,3.59,0,0,0-5.51,0,6.7,6.7,0,0,0-1.14,3.95h7.59Z"/>
  </g>
  <g class="logo">
    <path class="logo-path" d="M14.26,17.06a12.66,12.66,0,0,1-.36,3.07,6.28,6.28,0,0,1-1.27,2.51,6.28,6.28,0,0,1-2.45,1.7A10.57,10.57,0,0,1,6.29,25a11.7,11.7,0,0,1-3.72-.53A10.43,10.43,0,0,1,0,23.2l1.65-3.87a15,15,0,0,0,2,1,6.1,6.1,0,0,0,2.29.41,3.3,3.3,0,0,0,2.6-.89,4.52,4.52,0,0,0,.8-3V2.34h4.95Z"/>
    <path class="logo-path" d="M23.89,2.82a2.63,2.63,0,0,1-.84,2.06,2.92,2.92,0,0,1-2,.75,2.88,2.88,0,0,1-2-.75,2.6,2.6,0,0,1-.85-2.06A2.61,2.61,0,0,1,19.08.75a2.88,2.88,0,0,1,2-.75,2.92,2.92,0,0,1,2,.75A2.63,2.63,0,0,1,23.89,2.82Zm-.45,21.69H18.71V7.68h4.73Z"/>
    <path class="logo-path" d="M37.07,15.58a6.63,6.63,0,0,0-.59-3.26,2.17,2.17,0,0,0-2-1c-.29,0-.6,0-.92.05l-.92.11v13H27.89V8.26c.4-.11.87-.22,1.41-.34S30.41,7.7,31,7.6s1.22-.17,1.86-.22,1.26-.08,1.87-.08a7.81,7.81,0,0,1,2.94.46,6.88,6.88,0,0,1,1.86,1.1,8,8,0,0,1,2.33-1.15,8.35,8.35,0,0,1,2.43-.41,8.17,8.17,0,0,1,3.29.56,5,5,0,0,1,2,1.58,6.23,6.23,0,0,1,1.05,2.43A15.94,15.94,0,0,1,51,15v9.5H46.25V15.58a6.63,6.63,0,0,0-.59-3.26,2.17,2.17,0,0,0-2-1,4.09,4.09,0,0,0-1.06.19,4.26,4.26,0,0,0-1.13.48,7.09,7.09,0,0,1,.29,1.55c0,.55.06,1.13.06,1.75v9.18H37.07Z"/>
    <path class="logo-path" d="M69.21,20.7a7,7,0,0,0,1.73-.17,3.22,3.22,0,0,0,1.1-.48,1.51,1.51,0,0,0,.57-.72,2.52,2.52,0,0,0,.16-.93,2.16,2.16,0,0,0-1-1.81A14.54,14.54,0,0,0,68.26,15c-.72-.26-1.44-.55-2.16-.88a8,8,0,0,1-1.94-1.25,5.84,5.84,0,0,1-1.39-1.82,5.79,5.79,0,0,1-.54-2.61,6.53,6.53,0,0,1,.57-2.77,5.82,5.82,0,0,1,1.62-2.09A7.3,7.3,0,0,1,67,2.29a11.29,11.29,0,0,1,3.37-.47,13.6,13.6,0,0,1,3.84.48,14,14,0,0,1,2.67,1.06L75.41,7.3a13.28,13.28,0,0,0-2-.85,8.68,8.68,0,0,0-2.72-.37,4.92,4.92,0,0,0-2.55.5,1.67,1.67,0,0,0-.78,1.52,1.77,1.77,0,0,0,.28,1,2.68,2.68,0,0,0,.81.75,6.51,6.51,0,0,0,1.21.61c.46.18,1,.37,1.51.56,1.14.43,2.14.85,3,1.26a8.28,8.28,0,0,1,2.11,1.46,5.3,5.3,0,0,1,1.25,2,7.81,7.81,0,0,1,.42,2.72,5.81,5.81,0,0,1-2.17,4.82Q73.56,25,69.21,25a17.44,17.44,0,0,1-2.63-.18,15.43,15.43,0,0,1-2.08-.43,11.63,11.63,0,0,1-1.56-.54,10.2,10.2,0,0,1-1.1-.55l1.4-4a12.91,12.91,0,0,0,2.43,1A12.5,12.5,0,0,0,69.21,20.7Z"/>
    <path class="logo-path" d="M91.15,14.85q-.65,2.43-1.35,4.83t-1.51,4.83H84.6c-.38-.89-.79-2-1.24-3.2s-.91-2.58-1.39-4-1-3-1.46-4.64-1-3.28-1.45-4.94h5c.17.77.35,1.61.56,2.51S85,12,85.25,13s.45,1.93.7,2.9.49,1.9.75,2.8q.4-1.41.81-2.88c.26-1,.52-2,.76-2.9s.48-1.86.7-2.75.42-1.71.59-2.48H93c.17.77.36,1.6.57,2.48s.43,1.8.67,2.75.47,1.92.73,2.9.52,1.94.79,2.88c.26-.9.51-1.83.77-2.8S97,14,97.24,13l.64-2.8.56-2.51h4.92q-.7,2.49-1.45,4.94c-.5,1.64-1,3.18-1.47,4.64s-.94,2.82-1.4,4-.87,2.31-1.25,3.2H94.1q-.8-2.43-1.56-4.83C92,18.08,91.57,16.47,91.15,14.85Z"/>
    <path class="logo-path" d="M111.55,7.23a10.91,10.91,0,0,1,3.5.48,5.4,5.4,0,0,1,2.24,1.38,5.06,5.06,0,0,1,1.19,2.17,11,11,0,0,1,.35,2.85V24c-.68.15-1.62.33-2.83.53a27.35,27.35,0,0,1-4.38.3,14,14,0,0,1-2.94-.28,6.4,6.4,0,0,1-2.27-.95A4.25,4.25,0,0,1,105,21.92a5.92,5.92,0,0,1-.51-2.59,4.9,4.9,0,0,1,.59-2.5,4.54,4.54,0,0,1,1.57-1.63,7.2,7.2,0,0,1,2.26-.88,12.54,12.54,0,0,1,2.63-.27,15.93,15.93,0,0,1,1.64.08,6.6,6.6,0,0,1,1.16.21v-.45a2.67,2.67,0,0,0-.73-2A3.55,3.55,0,0,0,111,11.2a15.79,15.79,0,0,0-2.38.18,9.91,9.91,0,0,0-2,.49L106,8l1-.27c.41-.1.86-.18,1.35-.26s1-.13,1.54-.19S111,7.23,111.55,7.23Zm.39,14c.46,0,.91,0,1.33,0a10.15,10.15,0,0,0,1-.09V17.44a8.65,8.65,0,0,0-.86-.13,10.09,10.09,0,0,0-1.05-.06,9.85,9.85,0,0,0-1.25.08,3.17,3.17,0,0,0-1,.3,1.63,1.63,0,0,0-1,1.57,1.63,1.63,0,0,0,.75,1.55A4.06,4.06,0,0,0,111.94,21.18Z"/>
    <path class="logo-path" d="M128.29,2.82a2.63,2.63,0,0,1-.84,2.06,3,3,0,0,1-4,0,2.63,2.63,0,0,1-.84-2.06,2.63,2.63,0,0,1,.84-2.07,3,3,0,0,1,4,0A2.63,2.63,0,0,1,128.29,2.82Zm-.44,21.69h-4.73V7.68h4.73Z"/>
    <path class="logo-path" d="M141.48,15.58a6.63,6.63,0,0,0-.59-3.26,2.18,2.18,0,0,0-2-1c-.3,0-.6,0-.92.05l-.92.11v13H132.3V8.26c.4-.11.87-.22,1.41-.34s1.11-.22,1.72-.32,1.22-.17,1.85-.22,1.26-.08,1.88-.08a7.79,7.79,0,0,1,2.93.46A6.58,6.58,0,0,1,144,8.86a8.24,8.24,0,0,1,2.34-1.15,8.35,8.35,0,0,1,2.43-.41,8.21,8.21,0,0,1,3.29.56,4.91,4.91,0,0,1,2,1.58,6,6,0,0,1,1,2.43,15.9,15.9,0,0,1,.29,3.14v9.5h-4.73V15.58a6.63,6.63,0,0,0-.59-3.26,2.18,2.18,0,0,0-2-1,4.09,4.09,0,0,0-1.06.19,4.26,4.26,0,0,0-1.13.48,7.08,7.08,0,0,1,.28,1.55c.05.55.07,1.13.07,1.75v9.18h-4.73Z"/>
  </g>
</svg>
